<?xml version="1.0" standalone="no"?>
<!DOCTYPE svg PUBLIC "-//W3C//DTD SVG 20010904//EN"
 "http://www.w3.org/TR/2001/REC-SVG-20010904/DTD/svg10.dtd">
<svg version="1.0" xmlns="http://www.w3.org/2000/svg"
 width="705.000000pt" height="702.000000pt" viewBox="0 0 705.000000 702.000000"
 preserveAspectRatio="xMidYMid meet">

<g transform="translate(0.000000,702.000000) scale(0.100000,-0.100000)"
fill="#000000" stroke="none">
<path d="M3396 6795 c-3 -9 -6 -46 -6 -81 l0 -64 -85 0 c-73 0 -86 -3 -95 -19
-14 -28 -13 -116 3 -129 7 -6 49 -12 92 -14 l80 -3 3 -98 3 -99 -43 -38 c-24
-21 -50 -50 -58 -64 -8 -16 -53 -50 -109 -84 -265 -158 -438 -327 -487 -475
-11 -33 -35 -72 -67 -107 -28 -30 -64 -84 -81 -120 -28 -58 -31 -76 -32 -160
-1 -81 -5 -103 -27 -151 -69 -143 -90 -365 -49 -496 11 -35 18 -63 17 -63 -2
0 -216 198 -477 440 -260 242 -480 440 -488 440 -19 0 -200 -167 -200 -185 0
-7 29 -41 65 -76 36 -34 65 -66 65 -69 0 -4 -65 -65 -145 -135 -80 -70 -145
-133 -145 -141 0 -8 16 -35 36 -60 28 -37 34 -54 32 -83 l-3 -36 -55 0 c-42 1
-65 7 -97 28 -24 15 -49 27 -57 27 -8 0 -85 -69 -172 -153 -125 -122 -155
-156 -148 -169 5 -9 108 -107 229 -217 150 -138 226 -201 239 -199 32 5 364
290 365 314 1 13 -19 38 -54 68 -30 26 -55 51 -55 56 0 5 12 23 27 40 l26 31
71 -70 c40 -39 80 -71 91 -71 11 0 53 34 97 77 l78 77 35 -34 35 -34 -70 -71
c-38 -39 -70 -78 -70 -86 0 -9 27 -42 60 -74 66 -62 66 -65 7 -107 l-29 -21
-62 62 c-34 33 -68 61 -76 61 -15 0 -326 -288 -344 -319 -7 -12 39 -63 220
-238 126 -122 233 -223 238 -223 5 0 28 16 52 35 l43 35 5 -52 c3 -29 7 -75 9
-103 l2 -50 -238 -8 -238 -7 -67 39 c-64 38 -174 81 -207 81 -9 0 -41 27 -71
60 -134 144 -359 189 -531 105 -70 -35 -154 -120 -190 -193 -42 -86 -40 -163
9 -262 21 -41 57 -106 81 -145 24 -38 49 -85 55 -104 16 -47 15 -101 -1 -101
-20 0 -46 -32 -53 -66 -4 -23 0 -37 19 -60 l25 -30 -24 -84 c-19 -64 -26 -112
-27 -195 l-2 -110 25 0 c23 0 26 5 31 50 l6 50 1 -60 c2 -67 15 -90 42 -75 13
7 19 29 24 97 12 141 44 273 66 273 7 0 8 -6 2 -17 -19 -36 -43 -156 -52 -255
-7 -86 -6 -105 6 -118 11 -11 19 -12 32 -4 13 9 19 33 25 105 8 94 26 189 47
243 20 54 21 19 0 -60 -19 -77 -39 -250 -32 -287 3 -13 11 -17 30 -15 26 3 27
4 38 118 11 107 32 215 40 207 2 -2 -3 -35 -10 -73 -8 -38 -17 -105 -21 -150
-5 -68 -3 -83 10 -94 12 -10 21 -11 33 -3 13 8 19 33 25 109 7 93 37 232 57
264 19 31 19 0 -1 -76 -12 -48 -21 -117 -22 -174 l-2 -95 25 0 c21 0 26 6 31
40 l6 40 2 -41 c2 -74 59 -83 63 -10 1 25 2 22 7 -13 7 -54 34 -76 57 -47 14
19 14 19 14 -1 0 -11 7 -26 15 -33 22 -18 43 3 48 48 3 34 4 33 5 -10 2 -56
24 -83 53 -68 17 10 19 22 19 118 0 117 19 217 50 267 32 52 23 99 -26 141
-23 19 -24 22 -13 72 10 40 10 67 0 121 -12 68 -27 100 -139 314 -62 117 -66
153 -22 191 85 71 179 39 475 -162 163 -110 307 -190 387 -214 31 -9 39 -17
43 -42 7 -49 65 -707 65 -746 0 -34 -12 -47 -185 -207 l-186 -171 -64 6 c-50
4 -70 1 -91 -12 -34 -23 -54 -73 -54 -138 0 -49 -3 -55 -33 -75 -18 -13 -38
-23 -43 -23 -5 0 -15 27 -21 61 -27 143 -129 287 -249 351 -205 110 -495 69
-668 -92 -170 -159 -191 -380 -61 -617 l35 -64 -55 -64 c-89 -105 -135 -218
-135 -331 0 -114 72 -261 168 -344 95 -83 271 -150 392 -150 132 0 275 58 376
153 l65 60 27 -21 c98 -79 200 -116 317 -116 363 -1 647 388 506 691 -56 119
-189 231 -356 298 -85 35 -80 31 -65 50 8 10 30 15 62 15 99 0 151 47 152 136
l1 52 100 80 c55 44 101 77 102 74 1 -4 21 -211 43 -460 43 -484 47 -504 109
-601 104 -162 361 -310 679 -392 389 -100 838 -112 1267 -34 510 94 828 306
912 610 11 41 72 761 73 858 0 15 3 27 8 27 4 0 52 -36 107 -80 l99 -79 1 -53
c1 -29 8 -63 16 -76 20 -32 88 -62 141 -62 28 0 50 -6 58 -15 11 -13 8 -17
-19 -26 -67 -24 -189 -88 -249 -133 -242 -180 -257 -483 -33 -707 124 -124
245 -174 410 -167 86 3 104 7 171 40 41 20 91 49 110 66 l35 31 50 -49 c110
-107 241 -161 390 -161 169 0 298 53 415 171 86 85 126 159 143 257 22 126
-30 280 -133 395 l-50 56 45 89 c46 89 75 193 75 270 1 171 -105 330 -274 413
-174 86 -358 91 -523 14 -89 -42 -191 -150 -230 -245 -17 -40 -34 -92 -38
-114 -11 -67 -11 -67 -43 -51 -44 23 -56 43 -53 91 3 54 -19 108 -54 131 -25
16 -81 21 -137 12 -10 -2 -94 68 -212 176 l-196 179 6 51 c7 75 54 677 54 703
0 17 11 25 53 39 105 34 224 101 404 226 138 97 240 152 319 174 59 16 62 16
107 -4 86 -38 85 -90 -9 -252 -87 -152 -117 -226 -122 -305 -3 -42 0 -87 7
-106 11 -31 9 -35 -18 -56 -16 -13 -35 -39 -41 -58 -10 -31 -9 -40 9 -70 35
-60 52 -136 58 -267 5 -99 9 -128 21 -133 30 -11 42 15 44 94 l1 76 6 -64 c4
-44 11 -67 23 -74 19 -13 48 6 48 32 0 13 2 13 9 3 5 -8 17 -12 27 -10 16 3
20 14 22 62 4 71 -12 179 -37 252 -10 30 -15 54 -11 54 19 0 54 -164 62 -294
4 -52 31 -71 58 -39 14 18 19 20 24 8 7 -19 30 -19 46 0 16 19 -3 201 -29 286
-15 47 -16 59 -5 59 23 0 52 -122 72 -305 7 -66 8 -70 32 -70 l25 0 -2 105
c-1 65 -10 134 -22 180 -22 87 -20 107 4 28 15 -50 27 -128 40 -260 7 -61 26
-81 54 -53 13 13 14 29 3 127 -10 101 -27 189 -47 241 -4 9 -3 17 2 17 22 0
49 -118 71 -310 7 -61 9 -65 32 -65 22 0 25 5 28 40 5 57 -17 220 -39 290 -22
70 -21 65 -11 65 22 0 62 -190 62 -292 0 -53 16 -88 39 -88 13 0 31 24 31 43
0 17 1 17 16 3 12 -12 20 -14 36 -5 19 10 20 17 13 97 -7 96 -30 220 -49 266
-10 26 -9 32 11 52 37 37 31 86 -13 123 l-37 30 12 47 c15 57 33 93 103 206
64 101 82 156 76 235 -5 77 -39 143 -109 214 -170 174 -456 165 -633 -21 -31
-33 -65 -60 -74 -60 -32 -1 -148 -47 -212 -84 l-64 -38 -246 9 -245 8 3 60 c2
33 7 93 10 134 l7 73 63 -56 c34 -31 70 -56 79 -56 19 0 463 427 463 445 0 13
-321 327 -341 334 -6 2 -42 -27 -79 -64 l-68 -67 -42 38 -42 38 56 49 c90 78
90 78 5 163 l-73 74 29 30 c16 16 34 30 40 30 6 0 44 -34 85 -75 41 -41 81
-75 90 -75 8 0 47 33 88 73 l73 72 30 -35 29 -35 -61 -56 c-36 -33 -60 -62
-58 -71 5 -18 356 -318 372 -318 19 0 462 410 465 430 2 12 -48 66 -153 166
-85 82 -159 150 -164 152 -5 2 -30 -11 -57 -27 -57 -37 -106 -48 -141 -32 -22
10 -25 16 -20 48 4 20 20 53 37 74 16 21 30 46 30 56 0 11 -59 70 -146 147
l-146 130 66 64 c36 35 66 72 66 81 0 23 -186 195 -203 188 -6 -3 -376 -343
-820 -757 -445 -413 -811 -749 -814 -746 -11 11 -22 101 -22 186 -1 86 18 234
41 325 l13 50 295 5 295 5 34 90 c43 114 54 265 26 360 -19 66 -56 145 -89
190 -17 23 -23 45 -24 92 -3 122 -69 244 -170 313 -46 32 -52 41 -67 98 -46
166 -244 365 -484 487 -51 25 -95 58 -142 106 l-69 70 0 99 0 99 93 3 92 3 0
75 0 75 -92 3 -92 3 -3 77 -3 77 -86 3 c-72 2 -88 0 -93 -13z m126 -122 l3
-78 93 -3 c84 -2 92 -4 92 -22 0 -18 -7 -20 -83 -20 -51 0 -88 -5 -95 -12 -8
-8 -12 -52 -12 -130 l0 -118 -35 0 -35 0 0 118 c0 78 -4 122 -12 130 -7 7 -44
12 -96 12 -74 0 -83 2 -80 18 3 14 18 18 93 22 l90 5 3 78 3 77 34 0 34 0 3
-77z m61 -468 c67 -46 52 -51 -135 -38 -56 3 -95 10 -92 15 17 28 72 48 129
48 48 0 68 -5 98 -25z m174 -141 c99 -47 204 -120 287 -196 61 -56 68 -66 58
-84 -6 -11 -16 -52 -23 -90 -6 -38 -16 -80 -21 -93 -14 -39 -32 -9 -57 93 -30
120 -44 146 -81 146 -35 0 -56 -34 -90 -150 -12 -41 -28 -81 -35 -89 -17 -17
-20 -9 -60 122 -17 57 -36 99 -55 120 -28 31 -30 31 -57 17 -23 -12 -33 -32
-55 -100 -15 -47 -32 -104 -38 -128 -18 -70 -37 -52 -78 74 -42 128 -62 156
-106 152 -39 -4 -67 -52 -97 -169 -34 -127 -30 -128 -89 29 -36 94 -71 142
-104 142 -41 0 -69 -49 -100 -177 -10 -40 -22 -70 -27 -67 -5 3 -21 44 -36 91
l-26 87 44 39 c73 66 197 156 304 219 l100 60 185 -6 185 -7 72 -35z m-648
-380 c17 -47 31 -89 31 -95 0 -5 -31 -9 -70 -9 -67 0 -70 1 -70 23 0 24 23
111 42 160 15 40 31 22 67 -79z m265 64 c9 -24 25 -71 35 -105 l19 -63 -73 0
-73 0 14 58 c24 92 45 152 54 152 5 0 16 -19 24 -42z m310 -59 c14 -47 26 -90
26 -97 0 -8 -21 -12 -65 -12 -36 0 -65 3 -65 8 0 13 48 181 55 193 12 18 22
-1 49 -92z m263 -24 l19 -80 -49 -3 c-27 -2 -51 -2 -53 0 -2 2 9 43 23 91 15
48 30 84 34 80 4 -4 16 -44 26 -88z m234 33 c11 -22 27 -58 35 -80 l13 -38
-54 0 c-30 0 -55 4 -55 8 0 11 21 123 26 140 6 20 12 14 35 -30z m-1336 -38
c10 -30 20 -61 23 -67 3 -10 -13 -13 -58 -13 l-62 0 6 32 c7 37 58 120 67 110
4 -4 15 -32 24 -62z m-29 -152 c-2 -7 -23 -70 -46 -140 -22 -71 -45 -128 -50
-128 -14 0 -35 45 -60 128 l-22 74 38 39 c35 36 42 39 92 39 39 0 52 -3 48
-12z m294 -13 c-5 -14 -19 -63 -30 -108 -11 -45 -25 -99 -30 -119 -11 -37 -32
-49 -46 -27 -5 9 -53 249 -54 272 0 4 38 7 85 7 l85 0 -10 -25z m345 8 c-4
-10 -24 -73 -45 -141 -21 -68 -41 -126 -44 -129 -10 -10 -36 7 -45 29 -5 13
-25 76 -44 141 l-34 117 110 0 c100 0 109 -1 102 -17z m320 0 c-5 -10 -23 -72
-42 -138 -18 -65 -37 -123 -42 -128 -5 -5 -17 -7 -27 -5 -15 2 -26 32 -54 146
l-36 142 104 0 c95 0 104 -1 97 -17z m314 -33 c-10 -27 -28 -87 -40 -133 -25
-102 -33 -116 -55 -102 -11 7 -29 58 -50 145 -19 74 -34 136 -34 138 0 1 45 2
99 2 l99 0 -19 -50z m207 21 c73 -53 75 -58 59 -129 -17 -72 -42 -125 -54
-117 -5 3 -12 28 -16 57 -4 28 -17 89 -30 135 -25 94 -20 99 41 54z m-1377
-144 c13 -74 25 -118 40 -138 l22 -29 -111 0 -110 0 14 23 c8 12 31 76 51 142
21 66 42 129 48 140 10 18 10 18 19 -5 5 -14 17 -73 27 -133z m294 66 c14 -49
33 -113 41 -144 9 -31 23 -62 31 -69 33 -27 22 -28 -188 -21 -27 1 -27 2 -12
25 12 18 85 270 85 293 0 2 4 3 8 3 5 0 21 -39 35 -87z m677 -64 c16 -68 39
-136 50 -151 l21 -28 -121 0 c-66 0 -120 2 -120 5 0 3 9 18 20 33 11 15 34 79
51 141 17 63 35 124 41 135 15 28 22 11 58 -135z m303 94 c9 -32 23 -96 32
-143 9 -47 23 -95 31 -107 l14 -23 -117 0 -116 0 21 23 c11 12 30 58 42 102
32 121 61 205 69 205 5 0 15 -26 24 -57z m-637 -95 c13 -62 34 -125 44 -140
11 -15 20 -30 20 -33 0 -3 -52 -5 -116 -5 l-115 0 20 26 c17 21 54 127 98 278
5 17 6 17 14 3 5 -9 21 -67 35 -129z m-941 -40 c10 -29 28 -70 41 -90 l24 -38
-49 0 c-55 0 -61 7 -61 74 0 38 16 106 25 106 2 0 11 -24 20 -52z m1824 -1 c6
-17 11 -54 13 -82 l3 -50 -64 -3 -64 -3 27 31 c14 18 34 58 43 90 10 32 21 56
25 54 3 -2 11 -19 17 -37z m-1977 -869 l972 -903 -119 -3 -119 -3 -40 39 c-23
22 -426 394 -896 827 -470 433 -864 796 -875 806 -19 19 -19 20 40 79 33 33
61 60 63 60 2 0 440 -406 974 -902z m3190 845 l57 -58 -847 -780 c-466 -429
-879 -811 -918 -848 l-71 -68 -119 3 -119 3 970 902 c534 496 975 902 980 903
6 0 36 -26 67 -57z m-2882 -166 c0 -2 -9 -30 -20 -63 -12 -32 -34 -113 -51
-179 -33 -131 -44 -152 -65 -134 -16 13 -65 164 -84 255 -10 53 -10 65 4 92
l17 32 99 0 c55 0 100 -2 100 -3z m440 -5 c0 -4 -9 -29 -19 -57 -10 -27 -34
-106 -52 -175 -18 -69 -37 -131 -42 -137 -15 -20 -65 -16 -76 6 -6 10 -22 65
-35 122 -22 91 -46 169 -71 232 -7 17 2 18 144 16 83 0 151 -4 151 -7z m-329
-90 c11 -31 33 -111 49 -177 25 -101 34 -124 60 -147 24 -22 40 -28 76 -28 56
0 88 28 104 91 54 211 90 322 109 333 13 9 44 -63 96 -227 28 -89 57 -159 72
-177 31 -38 92 -56 136 -40 65 22 84 54 138 225 53 166 73 215 88 215 10 0 55
-133 92 -265 27 -103 43 -131 79 -150 49 -25 114 -13 149 29 7 8 30 82 51 164
40 154 67 232 79 232 11 0 39 -95 66 -230 30 -147 40 -177 67 -186 60 -19 88
21 128 178 26 105 28 110 41 87 10 -17 14 -61 14 -149 -1 -108 -4 -134 -26
-190 l-24 -65 -360 -2 c-198 -2 -650 1 -1005 5 l-645 7 -18 55 c-20 60 -26
178 -13 273 8 62 19 67 30 15 28 -143 77 -221 137 -221 45 0 73 36 89 114 18
88 68 256 87 292 18 36 22 31 54 -61z m853 71 c-4 -10 -33 -93 -63 -185 -31
-92 -63 -174 -71 -182 -31 -30 -66 -30 -98 1 -23 22 -38 55 -67 148 -20 66
-47 146 -60 178 l-24 57 196 0 c182 0 195 -1 187 -17z m456 12 c0 -3 -7 -22
-16 -43 -8 -20 -31 -98 -50 -172 -36 -140 -52 -170 -89 -170 -35 0 -51 28 -89
163 -20 71 -45 151 -55 178 l-19 49 159 0 c87 0 159 -2 159 -5z m296 -16 c18
-20 18 -23 1 -107 -23 -109 -55 -219 -67 -227 -4 -3 -14 21 -20 52 -11 58 -54
238 -66 281 -6 21 -4 22 63 22 58 0 73 -4 89 -21z m-2469 -553 l453 -417 -125
-110 -125 -110 -62 30 c-46 23 -75 31 -116 31 -48 0 -58 -4 -88 -34 -30 -30
-34 -40 -34 -85 0 -54 19 -113 47 -144 16 -17 14 -20 -37 -65 -30 -26 -86 -75
-125 -109 -38 -35 -74 -63 -78 -63 -8 0 -378 357 -385 370 -1 3 59 64 134 134
l136 129 68 -68 c51 -50 72 -65 83 -59 20 12 147 134 147 142 0 4 -30 36 -66
73 l-65 66 70 62 c91 80 91 92 7 165 -35 31 -70 56 -78 56 -8 0 -25 -12 -39
-26 -13 -14 -49 -48 -80 -75 l-56 -48 -76 70 c-42 39 -82 69 -89 67 -19 -5
-128 -123 -128 -139 0 -8 25 -37 56 -65 34 -30 54 -56 50 -62 -11 -19 -280
-242 -287 -240 -15 6 -389 353 -387 359 2 3 58 58 124 122 l122 117 53 -25
c36 -17 72 -25 107 -25 46 0 58 4 83 29 23 23 29 38 29 71 0 40 -19 89 -47
121 -12 15 0 29 124 138 l137 121 46 -43 c25 -24 249 -232 497 -461z m3723
385 c71 -63 130 -118 130 -122 0 -4 -5 -11 -11 -15 -17 -10 -49 -86 -49 -116
-1 -101 106 -136 228 -74 l49 25 124 -125 c122 -122 123 -124 104 -142 -11
-11 -78 -72 -150 -137 -71 -65 -150 -138 -175 -162 l-46 -43 -144 121 c-80 67
-146 125 -148 129 -2 4 22 29 53 55 35 30 55 55 55 69 0 13 -25 46 -64 85
l-65 64 -80 -72 c-93 -84 -84 -84 -181 13 -35 36 -70 66 -76 66 -18 0 -144
-120 -144 -138 0 -9 32 -48 70 -87 l70 -71 -60 -59 c-33 -33 -60 -66 -60 -75
0 -18 133 -140 152 -140 8 0 40 27 73 60 33 33 65 59 71 58 6 -2 69 -58 140
-126 l128 -123 -140 -140 c-76 -77 -164 -162 -195 -189 l-56 -49 -125 110
-126 111 24 35 c52 78 54 164 5 214 -51 51 -139 48 -224 -7 l-38 -25 -122 107
c-67 59 -123 110 -125 115 -4 9 980 919 990 916 4 -1 66 -53 138 -116z m-2680
-472 c32 -116 43 -202 42 -324 0 -217 27 -224 -297 76 -154 143 -287 267 -295
275 -12 12 21 14 262 14 l277 0 11 -41z m186 33 c21 -13 73 -130 99 -217 38
-133 51 -282 36 -428 -7 -67 -16 -127 -19 -134 -5 -8 -44 23 -116 90 l-109
102 14 60 c20 92 16 291 -10 409 -11 55 -21 105 -21 113 0 9 16 13 58 13 31 0
62 -4 68 -8z m431 -6 c3 -2 -7 -27 -21 -54 -93 -184 -122 -501 -65 -730 l22
-93 -33 -34 c-19 -19 -39 -35 -45 -35 -6 0 -36 26 -67 58 l-56 57 13 70 c45
236 20 490 -70 697 l-35 81 177 -7 c97 -3 178 -8 180 -10z m233 -3 c0 -5 -9
-51 -20 -103 -30 -138 -36 -313 -16 -425 l16 -90 -108 -102 c-59 -56 -110
-102 -114 -103 -4 0 -15 35 -25 78 -14 59 -18 115 -17 242 1 143 5 178 27 261
14 53 41 131 60 173 l36 76 80 0 c45 0 81 -3 81 -7z m791 -515 c77 -68 147
-124 154 -126 8 -2 30 8 48 22 40 31 98 56 129 56 29 0 68 -38 68 -67 0 -33
-22 -82 -53 -119 -32 -37 -34 -58 -9 -76 10 -7 45 -37 77 -65 l59 -53 -542 0
-542 0 -20 39 -20 39 68 65 c88 85 436 406 440 407 2 0 66 -55 143 -122z
m-1947 -102 c124 -114 226 -213 226 -218 0 -6 -12 -32 -27 -59 l-26 -49 -511
0 -510 0 58 53 c33 28 65 56 72 60 19 11 18 52 -2 68 -47 39 -69 142 -37 174
26 27 104 15 159 -24 25 -17 52 -31 62 -30 9 0 78 54 152 119 74 66 140 118
147 117 6 -1 113 -96 237 -211z m301 -324 c-26 -2 -49 -1 -52 1 -2 3 3 20 12
37 l17 32 35 -33 34 -34 -46 -3z m958 18 c4 -16 0 -20 -20 -20 -25 0 -26 0 -8
20 10 11 19 20 20 20 2 0 5 -9 8 -20z m-3210 -79 c60 -21 127 -63 165 -104
l23 -25 -40 -23 c-28 -15 -48 -37 -62 -67 -20 -40 -21 -49 -10 -97 7 -29 35
-92 63 -141 96 -168 122 -232 126 -309 4 -95 0 -99 -74 -80 -47 13 -87 15
-194 10 l-135 -6 -71 34 -71 35 -7 58 c-7 68 -34 130 -100 232 -67 102 -86
149 -86 210 0 114 109 243 240 283 50 15 175 10 233 -10z m5726 -31 c71 -38
123 -92 157 -165 42 -89 32 -136 -68 -301 -74 -123 -98 -182 -98 -245 0 -36
-2 -38 -69 -73 -78 -40 -107 -44 -241 -33 -91 7 -106 6 -220 -24 -10 -3 -17 9
-24 43 -14 70 13 153 100 309 41 74 78 150 84 169 24 85 0 156 -65 187 -19 9
-35 20 -35 24 0 10 83 85 111 100 65 35 134 49 220 45 74 -3 95 -8 148 -36z
m-1389 17 c0 -7 -9 -124 -20 -262 -11 -137 -27 -340 -35 -450 -9 -110 -27
-339 -40 -510 -13 -170 -43 -548 -65 -840 -22 -291 -45 -548 -51 -570 -70
-249 -339 -441 -754 -538 -859 -202 -1889 34 -2042 468 -11 32 -54 467 -97
975 -2 30 -25 282 -51 560 -25 278 -47 532 -49 565 -2 33 -9 110 -16 170 -7
61 -10 131 -7 156 3 26 2 50 -3 55 -8 8 -29 162 -30 216 0 15 110 17 1630 17
1269 0 1630 -2 1630 -12z m-3286 -379 c4 -57 10 -111 13 -122 4 -16 1 -18 -23
-12 -51 12 -186 83 -291 153 l-102 68 112 6 c62 3 151 6 198 7 l86 2 7 -102z
m3725 76 c2 -2 -46 -35 -105 -75 -99 -65 -233 -136 -292 -154 l-24 -7 6 89 c4
48 9 105 12 125 l6 38 196 -6 c109 -4 199 -8 201 -10z m-5017 -546 c88 -46 82
-45 303 -38 74 2 100 -1 148 -19 55 -22 123 -68 113 -78 -3 -3 -42 10 -88 27
-77 30 -94 33 -248 40 -159 6 -168 8 -250 42 -50 21 -86 42 -88 52 -5 26 23
19 110 -26z m6023 12 c0 -7 -43 -30 -97 -52 -96 -38 -99 -39 -250 -42 -145 -3
-157 -5 -236 -35 -46 -18 -86 -30 -89 -27 -11 11 18 34 80 62 61 28 66 29 232
29 l170 0 84 43 c85 42 106 47 106 22z m-6100 -141 c-9 -24 -22 -78 -30 -119
-7 -41 -14 -61 -14 -45 -1 34 22 146 38 189 18 46 23 24 6 -25z m6100 -113 c5
-49 5 -49 -10 14 -8 36 -19 78 -25 94 -5 16 -10 34 -9 40 1 25 39 -101 44
-148z m-5635 17 c-11 -38 -25 -98 -30 -134 l-9 -64 4 71 c5 68 41 211 51 201
3 -3 -4 -36 -16 -74z m81 20 c-12 -20 -14 -14 -5 12 4 9 9 14 11 11 3 -2 0
-13 -6 -23z m4977 -8 c-3 -3 -9 2 -12 12 -6 14 -5 15 5 6 7 -7 10 -15 7 -18z
m-4994 -49 c-3 -15 -8 -25 -11 -23 -2 3 -1 17 3 31 3 15 8 25 11 23 2 -3 1
-17 -3 -31z m5163 -8 c-3 -8 -6 -5 -6 6 -1 11 2 17 5 13 3 -3 4 -12 1 -19z
m-5320 -10 c-3 -8 -6 -5 -6 6 -1 11 2 17 5 13 3 -3 4 -12 1 -19z m5180 -40
c-3 -7 -5 -2 -5 12 0 14 2 19 5 13 2 -7 2 -19 0 -25z m150 0 c-3 -7 -5 -2 -5
12 0 14 2 19 5 13 2 -7 2 -19 0 -25z m410 -40 c-2 -13 -4 -3 -4 22 0 25 2 35
4 23 2 -13 2 -33 0 -45z m-5750 5 c-3 -10 -5 -2 -5 17 0 19 2 27 5 18 2 -10 2
-26 0 -35z m150 25 c-3 -8 -6 -5 -6 6 -1 11 2 17 5 13 3 -3 4 -12 1 -19z
m5050 -40 c-3 -7 -5 -2 -5 12 0 14 2 19 5 13 2 -7 2 -19 0 -25z m150 -50 c-2
-13 -4 -3 -4 22 0 25 2 35 4 23 2 -13 2 -33 0 -45z m-5210 15 c-3 -10 -5 -4
-5 12 0 17 2 24 5 18 2 -7 2 -21 0 -30z m5070 -60 c-3 -10 -5 -4 -5 12 0 17 2
24 5 18 2 -7 2 -21 0 -30z m-698 -400 c64 -59 65 -62 46 -76 -11 -9 -38 -29
-59 -45 l-40 -30 -118 95 -119 96 7 91 c3 50 8 97 10 105 4 12 61 -37 273
-236z m-3395 115 l7 -86 -103 -83 c-57 -45 -108 -86 -115 -91 -12 -10 -118 65
-118 83 0 5 70 74 155 153 118 109 156 139 161 127 3 -9 9 -55 13 -103z
m-1139 22 c143 -21 276 -114 336 -235 16 -34 38 -102 48 -151 14 -68 22 -90
36 -92 28 -6 105 28 146 65 36 33 37 35 32 88 -4 42 -2 61 12 81 15 24 22 26
64 22 37 -4 62 -16 124 -62 81 -60 101 -90 91 -132 -10 -38 -42 -54 -105 -54
-53 0 -59 -3 -88 -35 -21 -25 -31 -46 -31 -69 0 -32 2 -34 73 -60 175 -64 306
-166 363 -281 26 -53 29 -71 29 -150 0 -83 -3 -96 -37 -168 -71 -149 -217
-260 -377 -288 -120 -22 -252 19 -349 106 -28 25 -55 45 -62 45 -7 0 -42 -31
-79 -68 -112 -115 -256 -171 -402 -158 -250 23 -459 221 -459 437 0 105 64
234 164 328 20 19 36 41 36 49 0 8 -16 40 -35 72 -148 244 -116 483 82 617 73
48 154 81 233 92 77 12 77 12 155 1z m5590 -5 c208 -44 357 -194 372 -374 8
-106 -36 -250 -108 -353 -11 -14 -19 -34 -19 -44 0 -9 26 -45 58 -78 70 -73
104 -130 127 -210 74 -255 -177 -528 -485 -529 -144 -1 -254 49 -368 165 l-70
71 -54 -47 c-29 -26 -82 -61 -117 -79 -55 -27 -77 -32 -156 -35 -77 -4 -105 0
-159 18 -135 45 -237 135 -304 269 -35 70 -37 81 -37 166 0 82 3 97 33 157 55
113 160 196 337 268 88 36 90 38 93 72 2 29 -3 42 -28 67 -27 26 -39 31 -80
31 -89 0 -128 31 -116 94 5 25 22 44 79 86 151 113 228 100 213 -37 -6 -51 -5
-52 35 -87 23 -19 64 -43 91 -52 63 -21 71 -14 87 83 48 281 288 439 576 378z"/>
<path d="M603 3302 c-7 -4 -24 -34 -39 -65 l-26 -58 -66 3 -67 3 -3 -39 c-5
-62 4 -81 47 -100 87 -40 161 -151 183 -278 6 -35 16 -68 22 -74 6 -7 38 -16
71 -22 49 -8 63 -8 75 4 23 22 17 109 -13 192 -15 40 -27 76 -27 79 0 3 18 3
40 0 26 -3 43 -1 50 8 15 18 2 131 -16 146 -8 6 -34 14 -59 17 -25 2 -47 8
-50 12 -2 4 1 34 7 68 14 73 6 87 -51 96 -22 3 -45 8 -53 11 -7 3 -18 1 -25
-3z m55 -71 c11 -7 11 -19 2 -69 -7 -34 -10 -68 -7 -76 3 -8 23 -18 44 -21 86
-14 93 -17 93 -34 0 -14 -7 -16 -35 -13 -72 9 -80 -28 -35 -158 37 -105 39
-129 7 -123 -20 4 -25 15 -36 66 -25 124 -113 255 -192 287 -45 19 -34 29 24
23 l54 -5 29 66 c30 69 31 71 52 57z"/>
<path d="M6338 3278 c-44 -12 -49 -21 -37 -79 16 -84 15 -85 -48 -95 l-58 -9
-12 -69 c-16 -87 -8 -100 53 -90 l43 6 -29 -83 c-32 -90 -38 -164 -17 -193 11
-16 19 -16 80 -6 37 7 69 15 72 19 2 4 11 40 19 80 29 139 92 234 185 275 36
17 40 22 46 67 11 77 -16 91 -117 63 -13 -4 -24 10 -47 60 -28 63 -31 66 -63
65 -18 -1 -50 -5 -70 -11z m86 -107 c25 -69 41 -81 96 -71 42 8 71 3 42 -7
-39 -14 -111 -75 -143 -120 -32 -47 -66 -135 -83 -215 -6 -25 -40 -47 -53 -34
-4 3 8 50 26 104 21 63 31 111 29 137 l-3 40 -42 -1 c-35 -1 -43 3 -43 17 0
14 11 19 48 24 101 14 99 10 67 153 -4 18 -1 22 18 22 19 0 26 -9 41 -49z"/>
<path d="M3410 2919 c-80 -10 -248 -48 -254 -57 -2 -4 14 -36 36 -72 84 -136
146 -301 190 -501 19 -91 22 -134 22 -339 1 -253 -5 -307 -55 -498 -40 -154
-121 -336 -195 -438 -15 -21 -13 -22 66 -43 97 -26 180 -41 236 -41 l41 0 6
728 c11 1179 10 1272 -10 1271 -10 -1 -47 -5 -83 -10z"/>
<path d="M3633 1935 c3 -548 8 -1000 12 -1003 14 -14 311 41 343 64 2 1 -19
40 -47 86 -292 485 -288 1258 8 1716 l41 63 -28 10 c-42 17 -190 47 -266 55
l-69 7 6 -998z"/>
<path d="M2920 2750 c-36 -21 -80 -51 -98 -67 l-34 -28 75 -48 c148 -93 262
-247 319 -427 20 -66 23 -95 23 -240 0 -161 -1 -167 -33 -260 -18 -52 -51
-126 -74 -165 -51 -86 -181 -217 -265 -266 l-62 -36 86 -62 c48 -35 91 -65 98
-67 32 -12 173 154 243 286 88 166 125 324 125 540 1 236 -42 407 -153 618
-45 85 -167 262 -180 261 -3 0 -34 -17 -70 -39z"/>
<path d="M4108 2748 c-312 -381 -387 -942 -180 -1353 58 -117 148 -237 216
-289 l34 -25 83 60 c46 33 88 64 92 68 4 4 -20 25 -53 45 -302 187 -446 572
-345 921 58 198 168 346 332 444 l64 38 -38 31 c-40 31 -153 102 -164 102 -4
0 -22 -19 -41 -42z"/>
<path d="M4393 2491 c-277 -147 -406 -398 -348 -676 42 -199 207 -394 392
-465 l49 -19 51 77 c62 94 94 156 121 242 36 115 36 113 -19 74 -98 -71 -220
-92 -330 -57 -79 25 -162 110 -184 188 -53 182 86 355 286 355 70 0 167 -34
227 -80 l52 -40 -6 28 c-16 70 -58 183 -91 242 -38 70 -109 170 -121 170 -4 0
-40 -18 -79 -39z"/>
<path d="M2607 2458 c-72 -101 -129 -229 -152 -337 l-7 -35 40 32 c75 60 147
86 237 86 92 0 157 -23 214 -77 111 -106 108 -295 -7 -399 -52 -47 -84 -63
-154 -78 -90 -18 -206 15 -306 87 -23 16 -23 16 -16 -13 26 -112 91 -251 161
-347 40 -55 39 -55 148 2 90 46 209 162 258 251 74 135 100 304 68 440 -32
135 -124 269 -244 354 -69 48 -158 96 -181 96 -8 0 -35 -28 -59 -62z"/>
<path d="M624 1740 c-73 -29 -128 -81 -164 -154 -106 -214 57 -459 295 -444
169 11 289 138 289 308 0 122 -61 223 -168 277 -70 36 -180 42 -252 13z m239
-73 c171 -100 162 -353 -15 -441 -94 -47 -197 -32 -278 41 -57 51 -82 107 -82
183 0 76 25 132 82 183 60 54 97 67 182 63 50 -2 78 -10 111 -29z"/>
<path d="M1376 1103 c-66 -22 -147 -98 -177 -165 -32 -73 -33 -183 -1 -253
106 -232 434 -247 557 -24 27 49 30 62 30 149 0 87 -3 100 -30 149 -74 133
-231 193 -379 144z m186 -55 c51 -15 121 -77 147 -131 25 -51 28 -150 7 -201
-22 -53 -82 -112 -138 -136 -99 -43 -229 -10 -292 73 -152 199 36 467 276 395z"/>
<path d="M590 1021 c-90 -29 -165 -96 -203 -180 -31 -66 -30 -177 2 -249 30
-66 110 -141 177 -165 102 -36 229 -12 312 58 22 20 54 63 71 97 27 52 31 72
31 138 0 66 -4 86 -30 138 -54 107 -141 163 -265 168 -38 2 -81 0 -95 -5z
m185 -75 c55 -25 110 -81 131 -132 20 -48 17 -151 -5 -199 -23 -51 -102 -121
-150 -135 -190 -53 -364 106 -322 294 35 156 202 240 346 172z"/>
<path d="M6207 1746 c-84 -30 -151 -97 -188 -186 -8 -20 -14 -67 -14 -110 0
-88 22 -145 80 -208 115 -127 328 -131 448 -7 56 58 81 118 85 207 4 66 1 84
-23 135 -34 76 -76 119 -150 154 -49 24 -73 29 -130 29 -38 -1 -87 -7 -108
-14z m208 -65 c90 -40 144 -126 145 -226 0 -268 -347 -349 -473 -110 -30 56
-30 164 0 221 25 46 81 100 127 120 46 20 153 17 201 -5z"/>
<path d="M5450 1103 c-66 -24 -152 -114 -175 -182 -23 -71 -17 -189 13 -248
31 -60 86 -111 151 -142 73 -34 182 -36 251 -4 201 92 250 352 96 506 -60 60
-109 80 -206 84 -60 2 -98 -2 -130 -14z m233 -67 c113 -54 167 -217 111 -329
-76 -151 -264 -191 -392 -82 -126 108 -109 318 33 400 76 45 168 49 248 11z"/>
<path d="M6260 1013 c-66 -24 -152 -113 -175 -183 -29 -87 -23 -170 17 -249
119 -233 453 -222 561 18 30 66 29 178 -2 249 -30 66 -113 144 -177 166 -59
20 -165 19 -224 -1z m228 -69 c186 -93 185 -347 -3 -447 -56 -30 -164 -30
-221 0 -146 77 -181 252 -78 389 60 81 201 108 302 58z"/>
</g>
</svg>
